<svg xmlns="http://www.w3.org/2000/svg" enable-background="new 0 0 600 500" viewBox="0 0 600 500"><path fill="#d2e4ff" d="M542.2 412.5C574.6 338 527.9 300 518 272.3c-9.9-27.7 60.8-196.2-119.6-208.8-85.1-6-90.6 29-126.9 22.1-30.2-5.8-71-33.4-99.8-22.7-40.6 15.2-64.2 44-61 73.5 2.7 24.7 19.8 47.5 16.3 72.1-3.4 24.1-25.3 41.2-46.3 54.8-20.9 13.6-25.5 28-33.6 51-7.9 22.6 1.3 48.2 17.4 66.4.6.7 1.2 1.3 1.8 1.9 18.1 19.6 43.8 30.3 70.5 30.3l405.4-.4z" opacity=".3"/><path fill="#c6e2fa" d="M447.1 287.9h-39.6c-.2 0-.4-.2-.4-.4s.2-.4.4-.4h39.6c.2 0 .4.2.4.4s-.2.4-.4.4zM447.1 307.5h-39.6c-.2 0-.4-.2-.4-.4s.2-.4.4-.4h39.6c.2 0 .4.2.4.4s-.2.4-.4.4zM439.9 297.7h-56c-.2 0-.4-.2-.4-.4s.2-.4.4-.4h56c.2 0 .4.2.4.4s-.2.4-.4.4z"/><path fill="#c6e2fa" d="M415.6 287.9c-.2 0-.4-.2-.4-.4v-8.3c0-.2.2-.4.4-.4s.4.2.4.4v8.3c0 .2-.2.4-.4.4zM429.5 297.7c-.2 0-.4-.2-.4-.4v-9.8c0-.2.2-.4.4-.4s.4.2.4.4v9.8c0 .3-.2.4-.4.4zM418.9 307.2c-.2 0-.4-.2-.4-.4v-9.5c0-.2.2-.4.4-.4s.4.2.4.4v9.5c0 .2-.2.4-.4.4zM210.2 324h-39.6c-.2 0-.4-.2-.4-.4s.2-.4.4-.4h39.6c.2 0 .4.2.4.4s-.2.4-.4.4zM210.2 343.6h-39.6c-.2 0-.4-.2-.4-.4s.2-.4.4-.4h39.6c.2 0 .4.2.4.4s-.2.4-.4.4zM203 333.8h-56c-.2 0-.4-.2-.4-.4s.2-.4.4-.4h56c.2 0 .4.2.4.4s-.2.4-.4.4z"/><path fill="#c6e2fa" d="M178.8 324c-.2 0-.4-.2-.4-.4v-8.3c0-.2.2-.4.4-.4s.4.2.4.4v8.3c-.1.2-.2.4-.4.4zM192.7 333.8c-.2 0-.4-.2-.4-.4v-9.8c0-.2.2-.4.4-.4s.4.2.4.4v9.8c0 .2-.2.4-.4.4zM182.1 343.3c-.2 0-.4-.2-.4-.4v-9.5c0-.2.2-.4.4-.4s.4.2.4.4v9.5c0 .2-.2.4-.4.4zM464 177.5h-39.6c-.2 0-.4-.2-.4-.4s.2-.4.4-.4H464c.2 0 .4.2.4.4s-.2.4-.4.4zM464 197.1h-39.6c-.2 0-.4-.2-.4-.4s.2-.4.4-.4H464c.2 0 .4.2.4.4s-.2.4-.4.4zM456.8 187.3h-56c-.2 0-.4-.2-.4-.4s.2-.4.4-.4h56c.2 0 .4.2.4.4s-.2.4-.4.4z"/><path fill="#c6e2fa" d="M432.5 177.5c-.2 0-.4-.2-.4-.4v-8.3c0-.2.2-.4.4-.4s.4.2.4.4v8.3c0 .2-.2.4-.4.4zM446.4 187.3c-.2 0-.4-.2-.4-.4v-9.8c0-.2.2-.4.4-.4s.4.2.4.4v9.8c0 .3-.2.4-.4.4zM435.8 196.8c-.2 0-.4-.2-.4-.4v-9.5c0-.2.2-.4.4-.4s.4.2.4.4v9.5c0 .2-.2.4-.4.4z"/><path d="M390.5 154.4h2.5v1h-2.5zM421.7 155.4h-4.8v-1h4.8v1zm-9.6 0h-4.8v-1h4.8v1zm-9.6 0h-4.8v-1h4.8v1zm24.1-.5-.4-.9c1.3-.6 2.2-1.9 2.3-3.3l1 .1c-.1 1.8-1.2 3.4-2.9 4.1zm2.9-9h-1v-4.8h1v4.8zm0-9.5h-1v-4.8h1v4.8zm0-9.6h-1V122h1v4.8zm0-9.6h-1v-4.8h1v4.8zm0-9.6h-1v-4.8h1v4.8zm0-9.5h-1v-4.8h1v4.8zM428.5 86h1v2.5h-1zM199.6 154.4h2.5v1h-2.5zM194.8 155.4H190v-1h4.8v1zm-9.6 0h-4.8v-1h4.8v1zm-9.5 0h-4.8v-1h4.8v1zm-9.7-.5c-1.7-.8-2.8-2.4-2.9-4.2l1-.1c.1 1.4 1 2.7 2.3 3.3l-.4 1zm-1.9-9h-1v-4.8h1v4.8zm0-9.5h-1v-4.8h1v4.8zm0-9.6h-1V122h1v4.8zm0-9.6h-1v-4.8h1v4.8zm0-9.6h-1v-4.8h1v4.8zm0-9.5h-1v-4.8h1v4.8zM163.1 86h1v2.5h-1z"/><path fill="#060405" d="M396.7 111.9v279.7c0 11.4-9.2 20.6-20.6 20.6H219.8c-11.4 0-20.6-9.2-20.6-20.6V111.9c0-11.4 9.2-20.6 20.6-20.6H376c11.5 0 20.7 9.2 20.7 20.6z"/><path fill="#fff" d="M219.8 403.7c-6.7 0-12.1-5.4-12.1-12.1V111.9c0-6.7 5.4-12.1 12.1-12.1H376c6.7 0 12.1 5.4 12.1 12.1v279.7c0 6.7-5.4 12.1-12.1 12.1H219.8z"/><path fill="#060405" d="m337.8 97.9-5.1 12.1c-.6 1.5-2.2 2.6-3.9 2.6H267c-1.7 0-3.2-1-3.9-2.6l-5-12.1h79.7z"/><path fill="#fff" d="M318.1 106h-31.9c-1.2 0-2.2-1-2.2-2.2v-.5c0-1.2 1-2.2 2.2-2.2h31.9c1.2 0 2.2 1 2.2 2.2v.5c0 1.2-1 2.2-2.2 2.2z"/><circle cx="277.7" cy="103.5" r="3.3" fill="#fff"/><circle cx="297.9" cy="179.8" r="34.2" fill="#6193f6"/><path fill="#fff" d="M290.8 179.1c2.2 3 4.8 5.6 7.8 7.8 1.2.9 2.7.7 3.3-.3.3-.6.7-1.2 1-1.7.6-1 1.9-1.2 3-.7 2.5 1.2 5.2 2.1 8 2.6 1.2.2 2.2 1.2 2.1 2.3-.2 2.1-.3 4.1-.5 6.2-.1 1-1.4 1.8-3 1.7-16.7-1.3-30.6-15.2-31.9-31.9-.1-1.6.7-2.9 1.7-3 2.1-.2 4.1-.3 6.2-.5 1.1-.1 2.1.9 2.3 2.1.5 2.8 1.3 5.5 2.6 8 .5 1.1.3 2.4-.7 3-.6.3-1.2.7-1.7 1-.9.7-1 2.2-.2 3.4z"/><path fill="#6193f6" d="M145.8 424.2v-3.4h-20.2c-.3 6.5-.8 18.9-.9 18.9h32.8c1.1-10.8-11.7-15.5-11.7-15.5z"/><path fill="#060405" d="M157 435c.4 1.4.6 3 .5 4.7h-32.8c.1 0 .2-1.9.3-4.7h32z"/><path fill="#6193f6" d="M72.6 424.2v-3.4H52.5c-.3 6.5-.8 18.9-.9 18.9h32.8c1.1-10.8-11.8-15.5-11.8-15.5z"/><path fill="#060405" d="M83.9 435c.4 1.4.6 3 .5 4.7H51.5c.1 0 .2-1.9.3-4.7h32.1zM147.9 423.1l-11.1-160.5-39.5 7.7 26.9 152.8c.1 1.6 23.7 1.6 23.7 0z"/><path fill="#060405" d="m75.2 424.3 41.2-159.4-41.3 1.9-23.6 157.5c0 1.6 23.7 1.6 23.7 0z"/><path fill="#b580d8" d="M70 192.9c4.5-7.5 46-12 57.2-2.9 8.4 6.9 12.2 90.4 12.2 90.4.6 8.3-71.4 8.8-72 .6-.1-.1-2-80.4 2.6-88.1z"/><path fill="#fff" d="m153.6 210 9.1 7.3 29 6.3-5.2 8.6-26.3 5.6-25.4-15"/><path fill="#060405" d="M160.2 238.3c-.1 0-.2 0-.3-.1l-25.4-15c-.2-.1-.3-.4-.2-.7.1-.2.4-.3.7-.2l25.3 14.9 25.9-5.5 4.7-7.8-28.4-6.2c-.1 0-.1-.1-.2-.1l-9.1-7.3c-.2-.2-.2-.5-.1-.7.2-.2.5-.2.7-.1l9 7.2 29 6.3c.2 0 .3.1.4.3.1.1.1.3 0 .5l-5.2 8.5c-.1.1-.2.2-.3.2l-26.3 5.6c-.1.2-.2.2-.2.2z"/><path fill="#b580d8" d="M119.3 186.4s9.4 2.7 18.4 7.9c7.4 4.3 19.3 15.1 19.3 15.1.1 4.7-14.1 24.9-15.9 24l-18.9-13.2-2.9-33.8z"/><path fill="#fff" d="M97.3 272.8c.5 0 15.3-.9 16.1-4.8.8-4-18.9 3-18.9 3"/><path fill="#060405" d="M97.3 273.3c-.3 0-.5-.2-.5-.5s.2-.5.5-.5c2.1 0 14.9-1.3 15.5-4.4 0-.2 0-.3-.1-.3-1.5-1.3-11.9 1.7-18.1 3.9-.3.1-.5 0-.6-.3-.1-.3 0-.5.3-.6 2.8-1 16.8-5.8 19.1-3.7.4.3.5.8.4 1.3-.9 4.3-16.3 5.1-16.5 5.1z"/><path fill="#6193f6" d="M73.2 280.5c-6.4 5.4-9.5 13.2-9.2 21l18.3-9.7 15.2 17.9L85 326.2c7.6 1.5 15.8-.3 22.2-5.8 8.2-6.9 11-17.8 8.1-27.5l61.7-52.6c9.1 4.4 20.3 3.3 28.4-3.7 6.4-5.4 9.5-13.2 9.2-21l-18.3 9.7-15.2-17.9 12.5-16.5c-7.6-1.5-15.8.3-22.2 5.8-8.2 6.9-11 17.8-8.1 27.5l-61.7 52.6c-9.1-4.4-20.2-3.3-28.4 3.7z"/><path d="m175.8 238.9-61.7 52.6c2.9 9.6 0 20.5-8.1 27.5-5.8 4.9-13.1 6.9-20.1 6.1l-.9 1.1c7.6 1.5 15.8-.3 22.2-5.8 8.2-6.9 11-17.8 8.1-27.5l61.7-52.6c9.1 4.4 20.3 3.3 28.4-3.7 6.4-5.4 9.5-13.2 9.2-21l-1.3.7c-.3 7-3.4 13.9-9.2 18.8-8.1 7.1-19.2 8.1-28.3 3.8z" opacity=".1"/><path fill="#fff" d="m164.6 225.7-61.7 52.6c-9.1-4.4-20.3-3.3-28.4 3.6-5.8 4.9-8.9 11.8-9.2 18.8l-1.3.7c-.3-7.7 2.8-15.5 9.2-21 8.2-6.9 19.3-8 28.4-3.6l61.7-52.6c-2.9-9.6 0-20.5 8.1-27.5 6.4-5.4 14.6-7.3 22.2-5.8l-.9 1.1c-7-.8-14.3 1.2-20.1 6.1-8.1 7.1-10.9 18-8 27.6z" opacity=".1"/><path fill="#4e85dd" d="m157.9 238.5-41.3 35.2c-1.4 1.2-1.5 3.2-.4 4.6 1.2 1.4 3.2 1.5 4.6.4l41.3-35.2c1.4-1.2 1.5-3.2.4-4.6-.6-.7-1.4-1.1-2.2-1.1-.9-.1-1.8.2-2.4.7z"/><path d="M159.4 237.8c.5.2 1 .5 1.4 1 1.2 1.4 1 3.4-.4 4.6l-41.3 35.2c-.5.4-1 .6-1.5.7 1 .4 2.2.2 3.1-.6l41.3-35.2c1.4-1.2 1.5-3.2.4-4.6-.6-.7-1.4-1.1-2.2-1.1h-.8z" opacity=".1"/><path fill="#fff" d="m102.9 269.5-34.4-27.1 6.3-12.2-21.2-12.6s-12.2 23.4-9.2 30.8c5.6 14 52.2 29.8 52.2 29.8s9.5 17.4 19.7 8.3c10-8.9-9.4-14.6-10.3-14.9"/><path fill="#060405" d="M108.7 289.6c-6.6-1.2-11.6-9.6-12.4-10.9-3.6-1.3-46.8-16.4-52.3-30.1-3-7.6 8.7-30.3 9.2-31.2l.3-.3c.1 0 .3 0 .4.1l21.2 12.6c.2.1.3.4.2.7l-6.1 11.8 34 26.9c.2.2.3.5.1.7-.2.2-.5.3-.7.1l-34.4-27.1c-.2-.1-.2-.4-.1-.6l6.1-11.7-20.3-12.1c-1.7 3.3-11.6 23.3-8.9 29.9 5.4 13.6 51.4 29.4 51.9 29.6.1 0 .2.1.3.2.1.1 5.2 9.4 11.8 10.6 2.5.4 4.9-.4 7.2-2.4 2.1-1.9 3-3.7 2.6-5.5-.9-4.1-8.7-7.4-12.7-8.5-.3-.1-.4-.4-.3-.6.1-.3.4-.4.6-.3.5.1 12.1 3.5 13.4 9.3.5 2.2-.5 4.3-2.9 6.5-2.5 1.7-5.1 2.8-8.2 2.3z"/><path fill="#b580d8" d="M75.7 189.1s-10.4 4-16.3 9.9c-4.6 4.7-14 20.6-14 20.6-1.8 1.8 24.1 19.5 26.8 16.7 0 0 10.8-13.8 12.1-22.4 1.7-10.9-8.6-24.8-8.6-24.8z"/><path fill="#060405" d="M71.3 237.2c-.3 0-.5 0-.9-.1-5.8-1-22.6-10.8-25.2-16.4-.1-.3 0-.5.2-.7.3-.1.5 0 .7.2 2.5 5.2 19 14.9 24.5 15.8 1 .2 1.3 0 1.4-.1.1-.1 10.7-13.7 11.9-22.1 0-.3.3-.5.6-.4.3 0 .5.3.4.6-1.3 8.6-11.7 22-12.2 22.6-.3.4-.8.6-1.4.6zM135.7 230.6c-.3 0-.5-.2-.5-.4l-1.8-15.9c0-.3.2-.5.4-.6.3 0 .5.2.6.4l1.8 15.9c0 .3-.2.6-.5.6z"/><path fill="#fff" d="M105.6 173.9s-.1 7.6 4.5 11.2c1.6 3.5-2.9 17.3-23 1.7 0 0 1.5-22.4 3.5-26.4 2-4.1 15 13.5 15 13.5z"/><path fill="#060405" d="M102.8 194.5c-3.5 0-8.7-1.7-16-7.4l-.2-.2v-.3c.1-.9 1.6-22.5 3.6-26.6.3-.5.7-.8 1.2-.9 3.5-.3 12.7 11.6 14.8 14.4 0 3.7 1.3 8.6 4.3 11l.1.1v.1c.8 1.8.2 5.8-2.6 8-1.1 1-2.7 1.8-5.2 1.8zm-15.2-7.9c11.8 9 17.4 7.4 19.7 5.6 2.6-2 2.9-5.4 2.4-6.7-4.3-3.5-4.6-10.2-4.6-11.4-4.1-5.5-11.4-14-13.7-13.8-.1 0-.3.1-.4.3-1.8 3.6-3.2 23.4-3.4 26z"/><path fill="#fff" d="M89 164.7c2.4 5.6 13.5 14.8 22.2 10.3 11.3-5.9 15-38.7.5-45-9.4-4.2-27.3 23.9-22.7 34.7z"/><path fill="#060405" d="M106.1 176.7c-1.6 0-3.3-.3-5.1-.9-5.8-2.1-10.9-7.2-12.5-10.9-3.2-7.5 3.8-22.7 12-30.8 4.3-4.3 8.3-5.9 11.3-4.6 5.9 2.6 9.5 9.6 9.8 19.4.3 10.1-3.1 22.8-10.3 26.5-1.5.8-3.3 1.3-5.2 1.3zm-16.6-12.2c1.5 3.4 6.4 8.4 11.9 10.3 3.5 1.3 6.8 1.2 9.6-.3 5.8-3 10.1-14.3 9.7-25.6-.3-9.3-3.7-16.1-9.2-18.5-2.6-1.1-6.2.4-10.2 4.4-7.8 7.7-14.8 22.7-11.8 29.7z"/><path fill="#060405" d="M87.5 137.5s-7.3-7.8-15.3-7.4c-8 .4-8.6 8.4-8.6 8.4s-7.6-5.6-12.8 1.1c-5.2 6.8 4.1 14.1 4.1 14.1s-6.5 3.9-4.6 12.4c1.8 8.5 13.7 10.9 13.9-1.4 0 0 6.6 3.4 10.4-6.8 0 0 7.7 4.2 13.9-2.8s-1-17.6-1-17.6z"/><path fill="#060405" d="M89.6 165.9s.9-15 9.6-18 11-8.6 11-12.6c-.4 1.8 10.1 7.1 10.9 16.4 0 0 5.8-9.6-1.8-20.8-5.2-7.7-12.4-7.2-12.4-7.2s-9.4-9.2-21.4 5c-10.2 12.2 1.1 34.3 4.1 37.2z"/><ellipse cx="103.2" cy="154.7" fill="#060405" rx="1.5" ry="1.9" transform="rotate(-7.068 103.168 154.683)"/><ellipse cx="114" cy="153" fill="#060405" rx="1.5" ry="1.9" transform="rotate(-7.068 113.973 152.967)"/><path fill="#060405" d="m109.2 162.9-.7-.8c.5-.4.9-.8 1.2-1.3.2-.4.3-1 0-1.3-.2-.2-.7-.5-1.1-.8-.5-.5-.6-1.3-.7-1.8l-.5-3.9 1-.1.5 3.9c.1.5.2 1 .4 1.3.2.2.8.5 1.1.9.6.7.5 1.7.2 2.4-.3.5-.9 1-1.4 1.5zM104.4 168.9l.7-.7c.9.9 2.3 1.2 3.4.7l.4.9c-1.5.7-3.4.3-4.5-.9z"/><path fill="#ff7545" d="M85 158.8c-.2 0-.3-.1-.4-.2-5.1-7.7-6-17.7-2.4-26 .1-.3.4-.4.7-.3.3.1.4.4.3.7-3.5 8-2.6 17.6 2.3 25.1.2.2.1.6-.1.7H85z"/><path fill="#fff" d="M193.3 243c-1.7-2.6-1-6.2 1.6-7.9 2.6-1.7 6.2-1 7.9 1.6 1.8 2.6-7.7 8.9-9.5 6.3z"/><path fill="#060405" d="M194.7 244.1c-1 0-1.6-.5-1.8-.8-1.9-2.9-1.1-6.7 1.7-8.6 1.4-.9 3-1.2 4.7-.9 1.6.3 3 1.3 3.9 2.6.3.4.5 1.2 0 2.3-1.2 2.4-5.6 5.3-8.2 5.5-.1-.1-.2-.1-.3-.1zm-1-1.4c.2.3.6.4 1.2.4 2.3-.2 6.3-2.8 7.4-4.9.3-.5.3-1 .1-1.3-.8-1.2-1.9-1.9-3.3-2.2-1.4-.3-2.8 0-3.9.8-2.4 1.6-3.1 4.8-1.5 7.2z"/><path fill="#6193f6" d="M463 425.1V422h18.7c.2 6.1.7 17.5.9 17.5h-30.5c-1.1-10.1 10.9-14.4 10.9-14.4z"/><path fill="#060405" d="M452.5 435.1c-.4 1.3-.6 2.8-.4 4.4h30.5c-.1 0-.2-1.8-.3-4.4h-29.8z"/><path fill="#6193f6" d="M530.8 425.1V422h18.7c.2 6.1.7 17.5.9 17.5H520c-1.1-10.1 10.8-14.4 10.8-14.4z"/><path fill="#060405" d="M520.4 435.1c-.4 1.3-.6 2.8-.4 4.4h30.5c-.1 0-.2-1.8-.3-4.4h-29.8zM460.9 424l7.4-141 39.6-.8-25 141.8c0 1.5-22 1.5-22 0z"/><path fill="#060405" d="m528.5 425.2-38.3-148 43.4 3.7 16.8 144.3c0 1.4-21.9 1.4-21.9 0z"/><path fill="#fff" d="m472.3 231.9-28.5 10.3-41-22.6s-5.5 1.6-8.5-1.7c-3-3.2 1.9-7.9 1.9-7.9s-8.9-6.8-8.3-9.1c.6-2.2 12.5 6.7 12.5 6.7s-.6-3.1.4-4.2c1.1-1.1 3.6 5.2 3.6 5.2l40.2 9.3 12.4-10.3 15.3 24.3z"/><path fill="#060405" d="m443.8 242.8-.2-.1-40.8-22.5c-1.1.3-5.9 1.2-8.8-1.9-2.4-2.6-.3-6.3 1.5-8.2-2.2-1.7-8.7-7-8-9.3.1-.3.3-.5.6-.7 1.9-.6 8.6 4 11.7 6.4-.1-1.1-.1-2.7.7-3.5.2-.2.5-.3.8-.3 1.3.3 2.8 3.7 3.5 5.4l39.7 9.2 12.7-10.5 15.7 25.3-29.1 10.7zm-40.9-23.7.2.1 40.8 22.5 27.7-10.1-14.5-23.3-12.2 10.1-40.7-9.4-.1-.2c-1.1-2.6-2.4-4.9-2.9-5.1-.6.6-.4 2.6-.2 3.7l.3 1.3-1.1-.8c-5.6-4.2-11-7.3-11.8-6.9-.3 1.2 4 5.4 8.1 8.5l.5.4-.4.4s-4.5 4.4-1.9 7.2c2.8 3 7.9 1.5 8 1.5l.2.1z"/><path fill="#ff7545" d="m486.3 210.9-20.6 17.3c-6.4-5.6-10.6-13.9-11.1-20.3 7.5-6.4 13-11.7 21.9-17.3l9.8 20.3z"/><path fill="#ff7545" d="M540.3 194.2c-2.9-7.4-22.1-12.2-22.1-12.2h-26.6s-19.4 7.3-26.4 21c-4.7 9.3.9 83.9.9 83.9 0 7 69.9 6.8 69.9-.2.1.1 13.6-69.2 4.3-92.5z"/><path fill="#fff" d="M512.2 148.5s-2.5 22.2 6 33.5c0 0-8 13.7-19.9 13.4-11.9-.3-14.9-8.6-14-9.8.9-1.1 11.1-6.8 11.1-19s16.8-18.1 16.8-18.1z"/><path fill="#060405" d="M498.8 195.9h-.4c-7.9-.2-12.5-4.1-14.1-7.6-.5-1-.8-2.4-.3-3 .2-.2.5-.5 1.1-.9 2.7-2.1 9.9-7.7 9.9-17.8 0-12.4 16.4-18.3 17.1-18.5l.8-.3-.1.8c0 .2-2.4 22.1 5.9 33.1l.2.3-.2.3c-.4.5-8.1 13.6-19.9 13.6zm12.8-46.6c-3.2 1.3-15.7 7.1-15.7 17.3 0 10.6-7.4 16.4-10.2 18.6-.4.3-.8.6-.9.8-.1.1-.1 1 .6 2.4.8 1.5 4 6.4 13 6.6h.4c10.3 0 17.7-11 18.9-12.9-7.6-10.4-6.4-28.7-6.1-32.8z"/><path fill="#fff" d="M512.6 144.9c-.1 1.4-.2 2.6-.4 3.6-.6 3.3-1.9 8.7-4.5 13.2-3 5.1-9.1 9.4-16.5 8.3-10.4-1.6-7.4-29-3.9-40.3.7-2.3 1.5-3.9 2.3-4.5 4.6-3.8 19.5 2.5 21.4 7.2 1.3 3.5 1.8 8.6 1.6 12.5z"/><path fill="#060405" d="M493.6 170.7c-.8 0-1.7-.1-2.5-.2-1.9-.3-3.5-1.4-4.7-3.4-5.2-8.3-2.2-28.9.5-37.6.8-2.5 1.6-4.1 2.4-4.8 2.4-2 6.9-1.2 9.3-.6 5.2 1.4 11.6 4.8 12.9 8 1.5 3.8 1.8 9.1 1.7 12.7-.1 1.4-.2 2.6-.4 3.7-1 5.3-2.5 9.7-4.5 13.3l-.1.1c-2.6 4.3-7.7 8.8-14.6 8.8zm.1-46.2c-1.7 0-3 .4-3.8 1-.4.3-1.2 1.3-2.1 4.3-2.8 9-5.4 29-.6 36.7 1.1 1.7 2.4 2.7 4 2.9 7.6 1.2 13.3-3.5 15.9-7.9l.1-.1c2-3.4 3.5-7.8 4.5-13.1.2-1 .3-2.2.4-3.5.2-3.5-.2-8.6-1.6-12.3-1-2.6-6.6-6-12.2-7.4-1.7-.4-3.3-.6-4.6-.6z"/><path fill="#060405" d="M524 124.8c7 11.2-2.1 28.1-11.9 38.2l-4.5-1.2c2.6-4.5 3.9-9.9 4.5-13.2.2-1 .3-2.2.4-3.6 0 0 .2-5.1-1.8-4.5-2.1.7-2.4 4.3-2.4 4.3h-2.6s.2-13.6-2.3-14.2c-1.4-.3-10.1 1.3-17.3 2.1-3.4.4-10.5 1.2-13-9.5-2.9-13 6.2-14.5 12.8-14 19.4 1.3 34.6 10 38.1 15.6zM499.1 263.1c0 1.6-1.3 2.8-2.8 2.8h-65.8c-1.6 0-2.8-1.3-2.8-2.8s1.3-2.8 2.8-2.8h65.8c1.5-.1 2.8 1.2 2.8 2.8z"/><path fill="#fff" d="M467.6 260.2H427c-2.1 0-4-1.4-4.6-3.5l-8.3-31.7c-.8-3 1.5-5.9 4.6-5.9h40.7c2.1 0 4 1.5 4.5 3.5l8.3 31.7c.8 3-1.5 5.9-4.6 5.9z"/><path fill="#060405" d="M467.6 260.7H427c-2.4 0-4.4-1.6-5-3.9l-8.3-31.7c-.9-3.3 1.6-6.5 5-6.5h40.7c2.4 0 4.4 1.6 5 3.9l8.3 31.7c.8 3.3-1.7 6.5-5.1 6.5zm-48.9-41.1c-2.7 0-4.8 2.6-4.1 5.3l8.3 31.7c.5 1.8 2.2 3.1 4.1 3.1h40.7c2.8 0 4.8-2.6 4.1-5.3l-8.3-31.7c-.5-1.9-2.2-3.2-4.1-3.2h-40.7z"/><path fill="#d2e4ff" d="M430.7 255.8c.3 1.4.4 3 0 4.4H427c-2.1 0-4-1.4-4.6-3.5l-8.3-31.7c-.8-3 1.5-5.9 4.6-5.9h13.5c-3.2 1.8-6 4-7.6 7.3-2.2 4.6-1.2 10.2.6 15 1.8 4.8 4.5 9.4 5.5 14.4z"/><path fill="#060405" d="M496.3 266.4h-65.8c-1.8 0-3.3-1.5-3.3-3.3 0-1.8 1.5-3.3 3.3-3.3h65.8c1.8 0 3.3 1.5 3.3 3.3 0 1.8-1.5 3.3-3.3 3.3zm-65.8-5.7c-1.3 0-2.3 1-2.3 2.3 0 1.3 1 2.3 2.3 2.3h65.8c1.3 0 2.3-1 2.3-2.3 0-1.3-1-2.3-2.3-2.3h-65.8z"/><path fill="#060405" d="M467.6 260.7H427c-2.4 0-4.4-1.6-5-3.9l-8.3-31.7c-.9-3.3 1.6-6.5 5-6.5h40.7c2.4 0 4.4 1.6 5 3.9l8.3 31.7c.8 3.3-1.7 6.5-5.1 6.5zm-48.9-41.1c-2.8 0-4.8 2.6-4.1 5.3l8.3 31.7c.5 1.8 2.2 3.1 4.1 3.1h40.7c2.8 0 4.8-2.6 4.1-5.3l-8.3-31.7c-.5-1.9-2.2-3.2-4.1-3.2h-40.7z"/><path fill="#d2e4ff" d="M445 240.2c.2 1.8-1.2 3.3-3 3.3s-3.4-1.5-3.6-3.3c-.2-1.8 1.2-3.3 3-3.3s3.4 1.5 3.6 3.3z"/><path fill="#fff" d="M553.4 266.4c-4.5 6.8-62.8 5.6-62.8 5.6s-15.8 6.5-21.1-1.3c-5.3-7.8 8.7-7.6 8.7-7.6s-3-1.2-1.1-4 12.4 1.9 12.4 1.9l40.5-13.3-1.9-20.2 25.8.7c.1.1 5 30-.5 38.2z"/><path fill="#060405" d="M478.6 275c-3.7 0-7.4-1-9.5-4.1-1.3-2-1.6-3.7-.9-5 1.4-2.5 6-3.1 8.5-3.3-.2-.3-.5-.6-.6-1-.3-.9-.1-1.8.6-2.8 2-3 11.1.9 12.9 1.7l39.9-13.1-1.9-20.3 26.8.8.1.4c.2 1.2 4.9 30.2-.6 38.4-4.6 6.9-59.5 5.9-63.1 5.8-1 .3-6.7 2.5-12.2 2.5zm-.7-11.4c-2.3 0-7.6.5-8.9 2.8-.5 1-.3 2.4.8 4 5 7.4 20.4 1.2 20.5 1.2h.2c16.1.3 58.8.1 62.4-5.3 4.9-7.4 1.1-33.7.5-37.3l-24.8-.7 1.9 20-.4.1-40.7 13.3-.2-.1c-3.9-1.8-10.6-3.9-11.8-2.1-.5.7-.7 1.4-.5 1.9.3.9 1.3 1.3 1.3 1.3l2.7 1-2.8-.1h-.2z"/><path fill="#ff7545" d="M537.8 190.9s13.8 7.6 17.2 37c-.2 1.8-28.2 4-28 2.2 0 0-7.2-32.2 10.8-39.2z"/><path fill="#060405" d="M531.5 231.3c-1.3 0-2.3 0-2.9-.1-.6-.1-1-.1-1.3-.2-.6-.2-.7-.5-.7-.8-.3-1.4-4.4-21 1.5-31.5l.9.5c-5.7 10-1.6 29.6-1.4 30.7 2.1 1.2 25.7-.7 27.1-2.2 0 0 0 .1-.1.1l1 .1c-.2 2.1-16.4 3.4-24.1 3.4z"/><ellipse cx="499.4" cy="142.8" fill="#060405" rx="1.4" ry="1.9"/><ellipse cx="488.7" cy="141.9" fill="#060405" rx="1.4" ry="1.9"/><path fill="#060405" d="M491 148.7c.2-.4.4-.7.8-1.2 1-1.5 1.5-3.2 1.5-5h1c0 2-.6 3.9-1.7 5.6-.3.4-.6.8-.7 1.1-.4.9 0 1.5.4 1.4l.1 1c-1.2 0-2.1-1.3-1.4-2.9zM494.1 159.5l.4-.9c.8.3 1.7.3 2.5 0s1.4-1 1.7-1.8l.9.3c-.4 1.1-1.2 1.9-2.2 2.4-1.1.5-2.3.5-3.3 0z"/><path fill="#f2cb2a" d="M364.8 307.9H231.1c-1.8 0-3.2-1.4-3.2-3.2v-63.8c0-1.8 1.4-3.2 3.2-3.2h133.7c1.8 0 3.2 1.4 3.2 3.2v63.8c0 1.8-1.5 3.2-3.2 3.2z"/><path fill="#fff" d="M275.8 277.2h-35.4c-1.7 0-3.1-1.4-3.1-3.1v-23.8c0-1.7 1.4-3.1 3.1-3.1h35.4c1.7 0 3.1 1.4 3.1 3.1v23.8c0 1.7-1.4 3.1-3.1 3.1zm-35.5-28c-.6 0-1.1.5-1.1 1.1v23.8c0 .6.5 1.1 1.1 1.1h35.4c.6 0 1.1-.5 1.1-1.1v-23.8c0-.6-.5-1.1-1.1-1.1h-35.4z"/><path fill="#fff" d="m255.8 264.9-17.3-15.1c-.4-.4-.5-1-.1-1.4.4-.4 1-.5 1.4-.1l17.3 15.1c.5.5 1.3.5 1.9 0l17.3-15.1c.4-.4 1-.3 1.4.1.4.4.3 1-.1 1.4l-17.3 15.1a3.48 3.48 0 0 1-4.5 0z"/><path fill="#fff" d="m272.4 270.5-9.3-9.4c-.4-.4-.4-1 0-1.4.4-.4 1-.4 1.4 0l9.3 9.4c.4.4.4 1 0 1.4-.4.4-1 .4-1.4 0zM242.3 270.5c-.4-.4-.4-1 0-1.4l9.3-9.4c.4-.4 1-.4 1.4 0 .4.4.4 1 0 1.4l-9.3 9.4c-.4.4-1 .4-1.4 0zM288.3 252.5h69.8v3.3h-69.8zM288.3 258.9h19.3v3.3h-19.3zM355.4 299.6h-23c-1.5 0-2.7-1.2-2.7-2.7V284c0-1.5 1.2-2.7 2.7-2.7h23c1.5 0 2.7 1.2 2.7 2.7v12.9c0 1.5-1.2 2.7-2.7 2.7zM319.1 299h-23c-1.5 0-2.7-1.2-2.7-2.7v-12.9c0-1.5 1.2-2.7 2.7-2.7h23c1.5 0 2.7 1.2 2.7 2.7v12.9c0 1.5-1.2 2.7-2.7 2.7z"/><path fill="#060405" d="M302.1 295.4c-.4-.4-.4-1 0-1.4l9.7-9.7c.4-.4 1-.4 1.4 0s.4 1 0 1.4l-9.7 9.7c-.4.4-1 .4-1.4 0z"/><path fill="#060405" d="m311.8 295.4-9.7-9.7c-.4-.4-.4-1 0-1.4s1-.4 1.4 0l9.7 9.7c.4.4.4 1 0 1.4-.4.4-1.1.4-1.4 0zM341.2 295.1l-2.8-2.8c-.4-.4-.4-1 0-1.4s1-.4 1.4 0l2.1 2.1 7.2-7.2c.4-.4 1-.4 1.4 0s.4 1 0 1.4l-7.9 7.9c-.4.4-1 .4-1.4 0zM348.7 373.3H244.9c-4.1 0-7.4-3.3-7.4-7.4v-28.5c0-4.1 3.3-7.4 7.4-7.4h103.8c4.1 0 7.4 3.3 7.4 7.4V366c-.1 4-3.4 7.3-7.4 7.3z"/><path fill="#fff" d="M249.5 348.9c.5-.3 1.1-.4 1.8-.4.5 0 .9 0 1.2.1.4.1.7.2 1.1.4.4.2.9.1 1.2-.2.2-.2.3-.4.3-.7 0-.4-.2-.8-.6-1-.5-.3-1-.5-1.6-.7-.5-.2-1.1-.2-1.8-.2-1 0-1.9.2-2.7.7-.8.4-1.5 1.1-1.9 1.9-.5.8-.7 1.8-.7 2.9s.2 2.1.7 2.9c.5.8 1.1 1.5 1.9 1.9.8.4 1.7.7 2.7.7.7 0 1.3-.1 1.8-.2.5-.2 1.1-.4 1.6-.7.4-.2.6-.5.6-1 0-.3-.1-.5-.3-.7-.3-.3-.8-.4-1.2-.2-.4.2-.7.3-1.1.4-.3.1-.7.1-1.2.1-.7 0-1.3-.1-1.8-.4-.5-.3-.8-.6-1.1-1.1-.2-.5-.4-1.1-.4-1.7s.1-1.2.4-1.7c.2-.5.6-.8 1.1-1.1zM264.6 347c-.8-.5-1.7-.7-2.8-.7s-2 .2-2.8.7c-.8.5-1.4 1.1-1.9 2-.4.8-.7 1.8-.7 2.8 0 1 .2 2 .7 2.8.4.8 1.1 1.5 1.9 2 .8.5 1.7.7 2.8.7 1.1 0 2-.2 2.8-.7.8-.5 1.4-1.1 1.9-2 .4-.8.7-1.8.7-2.8 0-1-.3-2-.7-2.8-.5-.9-1.1-1.6-1.9-2zm.3 4.7c0 .6-.1 1.2-.4 1.7-.2.5-.6.9-1.1 1.2-.9.6-2.4.6-3.3 0-.5-.3-.8-.7-1.1-1.2-.2-.5-.4-1.1-.4-1.7s.1-1.2.4-1.7c.2-.5.6-.9 1.1-1.2.5-.3 1-.4 1.7-.4.6 0 1.2.1 1.7.4.5.3.8.7 1.1 1.2.2.5.3 1.1.3 1.7zM277.1 346.7c-.2.2-.3.5-.3.8v5.9l-4.4-6.4c-.4-.5-.8-.6-1.2-.6h-.2c-.4 0-.7.1-1 .4-.3.3-.4.6-.4 1v8.2c0 .3.1.6.3.8.4.4 1.2.4 1.6 0 .2-.2.3-.5.3-.8v-5.9l4.5 6.4c.1.2.3.3.5.4.2.1.4.2.7.2h.2c.4 0 .7-.1 1-.4.3-.3.4-.6.4-1v-8.2c0-.3-.1-.6-.3-.8-.5-.5-1.2-.5-1.7 0zM288.9 346.4H282c-.3 0-.6.1-.8.3-.2.2-.3.5-.3.8 0 .3.1.6.3.8.2.2.5.3.8.3h2.3v7.4c0 .3.1.6.3.8.2.2.5.3.8.3.3 0 .6-.1.8-.3.2-.2.3-.5.3-.8v-7.4h2.3c.3 0 .6-.1.8-.3.2-.2.3-.5.3-.8 0-.3-.1-.6-.3-.8-.1-.2-.4-.3-.7-.3zM296.7 347.2c-.1-.2-.3-.4-.5-.6-.2-.2-.5-.3-.8-.3h-.1c-.3 0-.6.1-.8.3-.2.2-.4.4-.5.6l-3.5 8.3c-.1.2-.1.3-.1.5 0 .3.1.6.3.8.4.4 1 .4 1.4.1.2-.1.3-.3.4-.5l.8-1.8h4l.8 1.9c.1.2.2.4.4.5.2.1.4.2.6.2.3 0 .6-.1.8-.3.2-.2.3-.5.3-.8 0-.1 0-.3-.1-.5l-3.4-8.4zm-2.8 5.2 1.5-3.5 1.5 3.5h-3zM305.7 348.9c.5-.3 1.1-.4 1.8-.4.5 0 .9 0 1.2.1.4.1.7.2 1.1.4.4.2.9.1 1.2-.2.2-.2.3-.4.3-.7 0-.4-.2-.8-.6-1-.5-.3-1-.5-1.6-.7-.5-.2-1.1-.2-1.8-.2-1 0-1.9.2-2.7.7-.8.4-1.5 1.1-1.9 1.9-.5.8-.7 1.8-.7 2.9s.2 2.1.7 2.9c.5.8 1.1 1.5 1.9 1.9.8.4 1.7.7 2.7.7.7 0 1.3-.1 1.8-.2.5-.2 1.1-.4 1.6-.7.4-.2.6-.5.6-1 0-.3-.1-.5-.3-.7-.3-.3-.8-.4-1.2-.2-.4.2-.7.3-1.1.4-.3.1-.7.1-1.2.1-.7 0-1.3-.1-1.8-.4-.5-.3-.8-.6-1.1-1.1-.2-.5-.4-1.1-.4-1.7s.1-1.2.4-1.7c.2-.5.6-.8 1.1-1.1zM320.4 346.4h-6.9c-.3 0-.6.1-.8.3-.2.2-.3.5-.3.8 0 .3.1.6.3.8.2.2.5.3.8.3h2.3v7.4c0 .3.1.6.3.8s.5.3.8.3c.3 0 .6-.1.8-.3.2-.2.3-.5.3-.8v-7.4h2.3c.3 0 .6-.1.8-.3.2-.2.3-.5.3-.8 0-.3-.1-.6-.3-.8-.2-.2-.5-.3-.7-.3zM335.2 346.7c-.2.2-.3.5-.3.8v5.5c0 .5-.1.8-.3 1.1-.2.3-.5.5-.8.7-.7.3-1.5.3-2.2 0-.3-.2-.6-.4-.8-.7-.2-.3-.3-.7-.3-1.1v-5.5c0-.3-.1-.6-.3-.8-.4-.4-1.2-.4-1.6 0-.2.2-.3.5-.3.8v5.5c0 .9.2 1.7.7 2.4.4.6 1 1.1 1.7 1.4.7.3 1.4.5 2.1.5.7 0 1.4-.2 2.1-.5.7-.3 1.3-.8 1.7-1.4.4-.6.7-1.4.7-2.4v-5.5c0-.3-.1-.6-.3-.8-.6-.5-1.3-.5-1.8 0zM347.2 352.2c-.4-.4-.8-.7-1.3-1-.5-.2-1.1-.4-1.8-.5-.5-.1-1-.2-1.3-.4-.3-.1-.5-.2-.6-.4-.1-.1-.2-.2-.2-.4 0-.3.1-.5.4-.7.8-.5 2.3-.4 3.6 0 .6.2.9.1 1.2-.3.2-.2.3-.5.3-.7 0-.5-.3-.9-.7-1-.9-.3-1.9-.5-2.9-.5-.8 0-1.5.1-2.2.4-.6.3-1.1.7-1.4 1.2-.3.5-.5 1.1-.5 1.7 0 .7.2 1.3.6 1.8.4.4.8.7 1.4.9.5.2 1.1.4 1.9.6.5.1 1 .3 1.3.4l.6.3c.1.1.1.2.1.3 0 .3 0 1.1-1.9 1.1-.9 0-1.7-.2-2.5-.5-.4-.2-.9-.1-1.2.2-.2.2-.3.5-.3.7 0 .2.1.4.2.6.1.2.3.3.5.4 1.1.5 2.2.7 3.5.7.8 0 1.5-.1 2-.4.6-.3 1.1-.6 1.4-1.1.4-.5.5-1.1.5-1.7-.2-.7-.4-1.3-.7-1.7z"/><path fill="#6193f6" d="M456.3 86.9c0 10.3-5.9 19.3-14.4 23.7-3.7 1.9-7.8 3-12.3 3-4.4 0-8.6-1.1-12.2-3-8.6-4.4-14.4-13.4-14.4-23.7 0-14.7 11.9-26.7 26.7-26.7 14.7.1 26.6 12 26.6 26.7z"/><path fill="#ff7545" d="M441.9 110.6c-3.7 1.9-7.8 3-12.3 3-4.4 0-8.6-1.1-12.2-3 2.9-3.5 7.3-5.8 12.2-5.8 5 0 9.4 2.3 12.3 5.8z"/><path fill="#fff" d="M433.4 105.5c0 .7-7.7.7-7.7 0v-4.8h7.7v4.8z"/><path fill="#060405" d="M421.7 92c1.3.3 2.6.4 3.9.3 4.8 0 9.7-.6 14.5-1.3.9-.1 1.8-.2 2.5-.8.9-.7 1.1-2.1.5-3-.6-1-1-1.1-8.8-5.4-1.7-.9-3.4-1.9-5.2-2.3-4.3-.9-8.7 1.3-10.6 1.1-.6 0-1-.4-1.2.3-1.5 5.1-.7 9.8 4.4 11.1z"/><path fill="#fff" d="M438.6 90.1c0 6.3-4 12.7-8.9 12.7s-8.9-6.4-8.9-12.7 4-10 8.9-10 8.9 3.7 8.9 10z"/><ellipse cx="433.4" cy="89.4" fill="#060405" rx="1" ry="1.3"/><ellipse cx="426" cy="89.4" fill="#060405" rx="1" ry="1.3"/><path fill="#060405" d="M427.3 98.5c-.2-.2-.3-.5-.1-.7.2-.2.5-.3.7-.1 1.2.8 2.7.7 3.8-.2.2-.2.5-.2.7 0 .2.2.2.5 0 .7-1.6 1.3-3.6 1.3-5.1.3zM422.3 86.4c1.5-.1 3-.7 4.5-.9 5.2-.7 9.9 3.6 15.1 3.2 3.6-.3 4.5-3 3.3-4.3-.7-.8-2-1-2.6-1.8-1.2-2 2.4-3.8 1.9-6-.3-.9-1.3-1.5-2.3-1.7-1.6-.3-4.6.2-5.5-1.6-1-1.9 1.4-3.8 1-5.7-.2-1-1.2-1.8-2.2-2.1-2.6-.8-9.4.8-14 5.5-1.5 1.5-2.7 3.3-3.5 5.2-.7 1.7-1.7 4.1-1.4 5.9.4 2.4 2.9 4.4 5.7 4.3zM429.7 95.9c-.7-.3-.9-1-.9-1.6 0-.4.1-.7.2-1.5.2-.9.2-1.9-.1-2.8-.1-.3.1-.5.3-.6.3-.1.5.1.6.3.3 1.1.4 2.2.1 3.3 0 .2-.6 1.6.1 1.9.7.4.3 1.3-.3 1z"/><path fill="#6193f6" d="M191.8 89.5c0 10.9-6.2 20.4-15.3 25.1-3.9 2-8.3 3.2-13 3.2-4.7 0-9.1-1.1-13-3.2-9.1-4.7-15.3-14.2-15.3-25.1 0-15.6 12.7-28.2 28.2-28.2 15.8 0 28.4 12.6 28.4 28.2z"/><path fill="#f2cb2a" d="M176.6 114.6c-3.9 2-8.3 3.2-13 3.2-4.7 0-9.1-1.1-13-3.2 3.1-3.7 7.7-6.1 13-6.1 5.2 0 9.9 2.4 13 6.1z"/><path fill="#fff" d="M166 109.5c0 .9-6.8.9-6.8 0v-6.2h6.8v6.2z"/><path fill="#060405" d="M151 90.7c-1.1 2.6-2.3 5.4-4.7 6.9-.5.3-1.2.7-1.1 1.3.1.4.5.7.9.9 1.5.7 3.1 1.4 4.6 2.1 1.7.8 3.4 1.5 5.2 1.8 1.8.3 3.8 0 5.3-1.1 1.4-1 2.1-2.7 2.6-4.3.6-1.7 1-3.6.8-5.4-.3-2.6-1.7-5-3.6-6.8-1-1-2.2-1.9-3.4-2.7-.7-.5-2.5-2.2-3.2-1.3-.4.6-1 1.5-1.2 2.1-.3.7-.6 1.5-.9 2.2-.4 1.5-.7 2.9-1.3 4.3z"/><path fill="#060405" d="M175 90.7c1.1 2.6 2.3 5.4 4.7 6.9.5.3 1.2.7 1.1 1.3-.1.4-.5.7-.9.9-1.5.7-3.1 1.4-4.6 2.1-1.7.8-3.4 1.5-5.2 1.8-1.8.3-3.8 0-5.3-1.1-1.4-1-2.1-2.7-2.6-4.3-.6-1.7-1-3.6-.8-5.4.3-2.6 1.7-5 3.6-6.8 1-1 2.2-1.9 3.4-2.7.7-.5 2.5-2.2 3.2-1.3.4.6 1 1.5 1.2 2.1.3.7.6 1.5.9 2.2.5 1.4.7 2.9 1.3 4.3z"/><path fill="#fff" d="M171.8 93c0 6.3-4 12.8-9 12.8s-9-6.5-9-12.8 4-10.1 9-10.1 9 3.8 9 10.1z"/><ellipse cx="166.5" cy="93.1" fill="#060405" rx="1" ry="1.3"/><ellipse cx="159" cy="93.1" fill="#060405" rx="1" ry="1.3"/><path fill="#060405" d="M162.7 102.3c-.8 0-1.7-.3-2.4-.7-.2-.2-.3-.5-.1-.7.2-.2.5-.3.7-.1.6.4 1.3.6 2 .6s1.4-.3 1.9-.8c.2-.2.5-.2.7 0 .2.2.2.5 0 .7-.7.6-1.6 1-2.5 1h-.3zM170.5 92.6c-.8-1.3-1.4-2.7-2.2-4-.8-1.3-2-2.4-3.5-2.7 0 .9.5 1.6.8 2.4s.3 1.9-.4 2.3c-.4.3-.9.2-1.4.2l-6-.3c-1.2-.1-2.4-.1-3.5-.6s-2-1.4-2.1-2.6c-.1-.9.3-1.7.7-2.4 1.3-2.5 2.8-5.1 5-6.9s5.3-2.8 8-2c1.8.5 3.3 1.8 4.5 3.2 1.8 2.1 3 4.7 3.6 7.4.3 1.3.4 2.7.4 4.1 0 .7-.1 1.4-.2 2.2-.1.5-1 1.3-1.3 1.7-.9 1.1-1.9-1.3-2.4-2zM162.4 99.1c-.4 0-.7-.2-.9-.6-.1-.3-.1-.7-.1-.9l.2-3.3c0-.3.2-.5.5-.5s.5.3.5.5l-.2 3.3v.4c.3-.1.5.1.6.3.1.3-.1.6-.4.6 0 .2-.1.2-.2.2zM435.2 381.6c-.1 0-.2 0-.3-.1-.2-.2-.3-.5-.1-.7.2-.2 4-5.4 9.5-5.4.3 0 .5.2.5.5s-.2.5-.5.5c-5 0-8.7 5-8.7 5-.1.1-.2.2-.4.2z"/><path fill="#6193f6" d="M430.8 380.6c1.1-1.1 2.4-2.1 3.5-3.1 2.5-2.3 4.5-5.2 5.7-8.3.6-1.5 1-3.2.6-4.7s-1.5-3.1-3.1-3.3c-1.6-.2-3 .8-4.4 1.5-1.4.8-3.3 1.3-4.5.2-.8-.7-1-1.7-1.2-2.7-.9-4.8-1.9-9.5-2.8-14.3-.4-2.2-1.1-4.8-3.2-5.6-1.7-.7-3.7.1-5.2 1.3-3.1 2.4-4.9 6.3-4.8 10.2.1 3.9 2.1 7.7 5.3 10 1 .7 2.1 1.3 2.8 2.2.7 1 .9 2.5 0 3.3-1.1 1-2.8.3-4.2.7-1.8.5-2.6 2.8-2 4.5s2.1 3 3.7 3.9c1.6.9 3.4 1.4 5 2.3 3.3 1.9 5.8 5.4 6.6 9.1.1 0 .3-5.1 2.2-7.2z"/><path fill="#060405" d="M429.8 396.1c-.1-.4-6.8-35.7-10.1-41.2-.1-.2-.1-.5.2-.7.2-.1.5-.1.7.2 3.3 5.7 9.9 40.1 10.2 41.6.1.5-.9.7-1 .1z"/><path fill="#060405" d="M427 380.1c-.1 0-.1 0 0 0-.3 0-.5-.3-.5-.5 0-.3.7-7.2 5.8-10.2.2-.1.5-.1.7.2s.1.5-.2.7c-4.6 2.7-5.3 9.4-5.3 9.5-.1.1-.3.3-.5.3zM426 375.7c-.2 0-.4-.1-.5-.3 0 0-2.1-4.9-6.6-4.9-.3 0-.5-.2-.5-.5s.2-.5.5-.5c5.2 0 7.5 5.3 7.6 5.5.1.3 0 .5-.3.7h-.2z"/><path fill="#6193f6" d="M437.8 383.8c1.4-.4 2.9-.5 4.3-.8 3.1-.6 6.1-2 8.5-3.9 1.2-.9 2.3-2.1 2.8-3.5s.2-3.2-.9-4.1c-1.2-.9-2.8-.8-4.3-.9-1.5-.1-3.2-.6-3.7-1.9-.3-.9 0-1.9.3-2.8 1.5-4.2 3-8.5 4.5-12.7.7-2 1.4-4.3.1-6-1.1-1.4-3-1.7-4.7-1.4-3.6.5-6.9 2.7-8.7 5.8s-2 7.2-.5 10.5c.4 1 1.1 2 1.2 3.1.1 1.1-.4 2.4-1.5 2.6-1.3.3-2.4-1.1-3.7-1.4-1.7-.4-3.4 1-3.8 2.7s.2 3.4 1.1 4.9c.9 1.5 2.1 2.7 2.9 4.2 1.8 3.1 2 7.1 1 10.4 0-.1 2.6-4 5.1-4.8z"/><path fill="#060405" d="M429.6 395.6c.1-.3 11.5-31.7 11.6-37.7 0-.3.2-.5.5-.5s.5.2.5.5c-.1 6.2-11.2 36.7-11.7 38-.2.7-1.1.4-.9-.3z"/><path fill="#060405" d="M436.5 377.7s-.1 0 0 0c-.3 0-.5-.3-.5-.6 0 0 .7-4.9-2.9-7.1-.2-.1-.3-.4-.2-.7.1-.2.4-.3.7-.2 4.2 2.5 3.5 7.8 3.4 8.1 0 .3-.3.5-.5.5z"/><path fill="#fff" d="M437 415.9h-11.9c-.7 0-1.3-.5-1.4-1.2l-4.8-20.8c-.1-.9.5-1.7 1.5-1.7l21.7.1c.9 0 1.6.8 1.4 1.7l-5 20.8c-.2.5-.8 1.1-1.5 1.1z"/><path fill="#060405" d="M437 416.4h-12c-1 0-1.8-.7-1.9-1.7l-4.8-20.8c-.2-1.3.8-2.3 1.9-2.3l21.7.1c1.2 0 2.1 1.1 1.9 2.3l-5 20.8c0 .9-.8 1.6-1.8 1.6zm-16.8-23.8c-.6 0-1.1.5-1 1.1l4.8 20.8c.1.5.5.8 1 .8h11.9c.5 0 .9-.3 1-.8l5-20.8c.1-.5-.3-1.1-1-1.1h-21.7z"/><path fill="#c6e2fa" d="M160.6 156.8h-17.2c-.2 0-.4-.2-.4-.4s.2-.4.4-.4h17.2c.2 0 .4.2.4.4s-.2.4-.4.4zM160.6 165.3h-17.2c-.2 0-.4-.2-.4-.4s.2-.4.4-.4h17.2c.2 0 .4.2.4.4s-.2.4-.4.4zM157.5 161.1h-24.3c-.2 0-.4-.2-.4-.4s.2-.4.4-.4h24.3c.2 0 .4.2.4.4s-.2.4-.4.4z"/><path fill="#c6e2fa" d="M147 156.8c-.2 0-.4-.2-.4-.4v-3.6c0-.2.2-.4.4-.4s.4.2.4.4v3.6c0 .3-.2.4-.4.4zM153 161.1c-.2 0-.4-.2-.4-.4v-4.3c0-.2.2-.4.4-.4s.4.2.4.4v4.3c0 .2-.2.4-.4.4zM148.4 165.2c-.2 0-.4-.2-.4-.4v-4.1c0-.2.2-.4.4-.4s.4.2.4.4v4.1c0 .2-.2.4-.4.4z"/></svg>