<svg width="167" height="100" viewBox="0 0 167 100" fill="none" xmlns="http://www.w3.org/2000/svg">
<path d="M161.553 57.7561C161.553 58.0446 161.548 58.333 161.537 58.6215H153.226V76.6452C152.866 76.9725 152.5 77.2942 152.123 77.5993V69.3669H142.925V82.3924C140.706 83.0192 138.365 83.3576 135.946 83.3576H132.196V69.3669H123.004V83.3576H121.833C121.512 79.724 120.025 76.5453 117.406 73.8992C114.422 70.8925 110.727 69.3669 106.417 69.3669C104.392 69.3669 102.279 69.8163 100.126 70.7039V58.677H90.9285V83.3576H89.8134C89.4917 79.7185 88.005 76.5453 85.3866 73.8992C82.402 70.8925 78.7074 69.3669 74.397 69.3669C72.3722 69.3669 70.2586 69.8163 68.1062 70.7039V58.677H58.9141V83.3576H57.8434C57.7602 82.2981 57.4551 81.0277 56.9392 79.5798C55.8629 76.5731 53.9602 74.1045 51.2863 72.2405C48.6124 70.3766 45.6334 69.4279 42.4381 69.4279C38.1666 69.4279 34.4719 70.948 31.4486 73.9436C28.7969 76.5731 27.2935 79.7351 26.9607 83.3632H26.0287C25.1134 83.3632 24.2147 83.3132 23.3271 83.2189C24.1925 81.9097 24.8415 80.5284 25.2687 79.0972C25.6515 77.7824 25.8512 76.6175 25.8512 75.6411V69.3725H16.6535V75.1696L16.4371 76.4677C16.0155 78.0986 15.1834 79.1804 13.8853 79.7629L13.8576 79.774L13.8298 79.7906C13.6357 79.9071 13.4803 79.9737 13.3639 80.0125C11.6941 79.0639 10.1463 77.9267 8.73727 76.6397V58.677H0.438273C0.427178 58.3719 0.421631 58.0612 0.421631 57.7561H161.553Z" fill="#FD4F41"/>
<path d="M0.421614 54.9824C-1.68642 36.3762 4.48789 26.3686 12.3209 10.0535C15.5329 3.36323 20.0929 -0.0817396 27.5099 0.00147237C37.3067 0.106874 47.109 -0.0262609 56.9059 0.0403087C64.1508 0.0902358 66.453 2.40907 66.503 9.84822C66.5862 22.5353 66.5363 35.2279 66.5363 47.9149C66.5363 50.0007 66.5363 52.0811 66.5363 54.9824M30.7274 34.5843C30.7274 34.5843 30.7274 34.6121 30.7274 34.6287C35.8976 34.6287 41.0679 34.5455 46.2381 34.6565C49.6498 34.7286 51.1199 33.2474 51.081 29.8579C51.0034 23.5338 51.3695 17.1875 50.8591 10.9078C50.7315 9.32121 48.102 6.8193 46.4544 6.67507C40.563 6.1647 34.533 5.98163 28.6915 6.72499C25.9122 7.08003 22.4617 9.21581 21.0249 11.5846C17.5744 17.2818 15.1057 23.5837 12.2876 29.6582C10.6012 33.2973 12.2654 34.601 15.7992 34.5899C20.7753 34.5677 25.7569 34.5899 30.7329 34.5899L30.7274 34.5843Z" fill="#00496C"/>
<path d="M117.085 74.343C114.178 71.414 110.622 69.9439 106.422 69.9439C104.248 69.9439 101.996 70.4709 99.6712 71.5194V59.2373H91.4V85.8651C91.4 86.0149 91.4721 86.6196 91.6219 87.668C91.7328 88.1562 91.8271 88.5889 91.9048 88.9606C92.809 92.1892 94.6064 94.8298 97.308 96.8935C100.01 98.9571 103.027 99.989 106.367 99.989C110.533 99.989 114.089 98.5355 117.029 95.6231C119.975 92.7107 121.445 89.1659 121.445 84.9942C121.445 80.8225 119.992 77.2721 117.085 74.3375V74.343ZM111.177 89.704C109.845 91.0132 108.259 91.6622 106.422 91.6622C104.775 91.6622 103.299 91.1019 102.007 89.9813C100.714 88.8607 99.9542 87.4794 99.7267 85.8318V84.9942C99.7267 83.1247 100.37 81.5381 101.668 80.2289C102.961 78.9197 104.547 78.2651 106.422 78.2651C108.298 78.2651 109.845 78.9197 111.177 80.2289C112.508 81.5381 113.174 83.1247 113.174 84.9942C113.174 86.8637 112.508 88.3948 111.177 89.704Z" fill="#00496C"/>
<path d="M111.132 85.0552C111.132 87.6625 109.019 89.7705 106.417 89.7705C103.815 89.7705 101.702 87.6569 101.702 85.0552C101.702 84.5781 101.774 84.1121 101.907 83.6739C102.495 81.7434 104.292 80.3398 106.417 80.3398C108.542 80.3398 110.339 81.7434 110.927 83.6739C111.06 84.1121 111.132 84.5726 111.132 85.0552Z" fill="#FD4F41"/>
<path d="M89.3529 83.4742C89.0367 79.9571 87.6055 76.9115 85.0592 74.343C82.1523 71.414 78.5964 69.9439 74.397 69.9439C72.2224 69.9439 69.9701 70.4709 67.6457 71.5194V59.2373H59.3745V85.8651C59.3745 86.0149 59.4466 86.6196 59.5963 87.668C59.7073 88.1562 59.8016 88.5889 59.8793 88.9606C60.7835 92.1892 62.5809 94.8298 65.2825 96.8935C67.9841 98.9571 71.0019 99.989 74.3415 99.989C78.5021 99.989 82.058 98.5355 85.0037 95.6231C87.9439 92.7107 89.4195 89.1659 89.4195 84.9942C89.4195 84.4783 89.3973 83.9679 89.3529 83.4686V83.4742ZM74.397 91.2073C72.8492 91.2073 71.5012 90.697 70.2808 89.6374C69.0714 88.5889 68.378 87.3352 68.1616 85.8041V84.9942C68.1616 84.4616 68.2171 83.9512 68.328 83.4686C68.5777 82.3702 69.1213 81.4105 69.9701 80.5506C71.185 79.3247 72.6329 78.7255 74.397 78.7255C76.1611 78.7255 77.5757 79.3247 78.8294 80.5562C79.7004 81.4105 80.2551 82.3702 80.5158 83.4686C80.6323 83.9512 80.6878 84.4561 80.6878 84.9942C80.6878 86.7083 80.0776 88.1396 78.8294 89.3711C77.5757 90.6027 76.1278 91.2018 74.397 91.2018V91.2073Z" fill="#00496C"/>
<path d="M79.1123 85.0552C79.1123 87.6625 76.9987 89.7705 74.397 89.7705C71.7952 89.7705 69.6816 87.6569 69.6816 85.0552C69.6816 84.5781 69.7538 84.1121 69.8869 83.6739C70.4749 81.7434 72.2723 80.3398 74.397 80.3398C76.5217 80.3398 78.319 81.7434 78.9071 83.6739C79.0402 84.1121 79.1123 84.5726 79.1123 85.0552Z" fill="#FD4F41"/>
<path d="M0.00555288 59.1375H8.2768V80.5229H13.1142C13.3749 80.5229 13.6967 80.412 14.0684 80.1845C15.4941 79.541 16.4316 78.3372 16.8809 76.562L17.1084 75.2029V69.8274H25.3796V75.6356C25.3796 76.5731 25.191 77.6826 24.8193 78.9641C24.2202 80.9944 23.1662 82.8917 21.6684 84.6558C23.4325 86.6861 24.5974 89.0937 25.1577 91.873C25.1577 91.9119 25.1744 92.0228 25.2132 92.2114C25.252 92.4 25.2687 92.511 25.2687 92.5498C25.3075 92.7772 25.3408 93.1878 25.3796 93.7924V99.9945H17.1084V94.1142L16.8809 92.7551C16.3539 90.6803 15.1945 89.3988 13.3916 88.9107C13.3527 88.9107 13.3139 88.894 13.2806 88.8552H8.27127V100H0V59.143L0.00555288 59.1375Z" fill="#00496C"/>
<path d="M123.47 69.9993H131.741V86.4863C131.813 86.9356 131.891 87.3129 131.969 87.6125C132.307 88.8107 133.011 89.787 134.077 90.5359C135.147 91.2849 136.301 91.6621 137.538 91.6621C139.075 91.6621 140.434 91.1018 141.616 89.9756C142.797 88.8495 143.391 87.5181 143.391 85.9815V69.9993H151.662V86.3753C151.662 87.5015 151.496 88.6055 151.157 89.6928C150.22 92.7716 148.511 95.2569 146.037 97.1485C143.563 99.0458 140.728 99.9888 137.538 99.9888C134.648 99.9888 131.969 99.129 129.489 97.3982C127.015 95.6729 125.289 93.4428 124.313 90.7024C123.753 89.1269 123.47 87.8898 123.47 86.9856V69.9882V69.9993Z" fill="#00496C"/>
<path d="M153.687 59.0819H161.958V69.6055H166.008V77.9322H161.958V90.3752C161.958 90.6359 162.091 90.9188 162.352 91.2184C162.613 91.5179 162.879 91.6677 163.14 91.6677H166.518V99.9944H162.579C162.052 99.9944 161.415 99.8835 160.666 99.6561C157.254 98.6409 155.04 96.4108 154.025 92.9603C153.798 92.1725 153.687 91.4625 153.687 90.8189V59.0819Z" fill="#00496C"/>
<path d="M57.3774 83.3576C57.2942 82.3424 57.0002 81.1331 56.5009 79.7296C55.4524 76.806 53.6218 74.4317 51.0145 72.6122C48.4072 70.7926 45.5447 69.8828 42.4325 69.8828C38.272 69.8828 34.7105 71.3418 31.7703 74.2653C29.1963 76.8116 27.7484 79.846 27.4211 83.3576C27.3712 83.8624 27.349 84.3839 27.349 84.9109C27.349 89.0549 28.8135 92.6052 31.737 95.562C34.6661 98.5188 38.1887 99.9944 42.3161 99.9944C44.6016 99.9944 46.8761 99.4508 49.1228 98.3635V99.9944H57.3941V83.9567C57.3941 83.7681 57.383 83.5684 57.3663 83.3631L57.3774 83.3576ZM42.3771 91.2017C40.6518 91.2017 39.2039 90.5915 37.9502 89.3378C36.6965 88.084 36.0863 86.6362 36.0863 84.9109C36.0863 84.3617 36.1473 83.8458 36.2638 83.3576C36.5301 82.2758 37.0959 81.3272 37.9668 80.4896C39.2372 79.2691 40.7018 78.6755 42.427 78.6755C44.1523 78.6755 45.5891 79.2802 46.8261 80.5339C47.6638 81.3827 48.2075 82.3147 48.4737 83.3576C48.6013 83.8513 48.6624 84.3672 48.6624 84.9109C48.6624 86.6362 48.0521 88.084 46.7984 89.3378C45.5447 90.5915 44.0968 91.2017 42.3715 91.2017H42.3771Z" fill="#00496C"/>
<path d="M47.0924 84.9386C47.0924 87.5459 44.9843 89.654 42.377 89.654C39.7697 89.654 37.6617 87.5404 37.6617 84.9386C37.6617 84.4615 37.7338 83.9955 37.867 83.5573C38.455 81.6268 40.2523 80.2233 42.377 80.2233C44.5017 80.2233 46.2991 81.6268 46.8871 83.5573C47.0203 83.9955 47.0924 84.456 47.0924 84.9386Z" fill="#FD4F41"/>
<path d="M75.0072 46.7H161.553V54.9823H70.6968V51.0103C70.6968 48.6305 72.6273 46.7 75.0072 46.7Z" fill="#00496C"/>
</svg>
