<svg xmlns="http://www.w3.org/2000/svg" version="1.1" xmlns:xlink="http://www.w3.org/1999/xlink" width="512" height="512" x="0" y="0" viewBox="0 0 512 512" style="enable-background:new 0 0 512 512" xml:space="preserve" class=""><g><path d="M303.45 374.95c-5-5-13.1-5-18.1 0s-5 13.1 0 18.1l76.8 76.8c2.5 2.5 5.775 3.75 9.05 3.75s6.55-1.25 9.05-3.75l128-128c5-5 5-13.1 0-18.1s-13.1-5-18.1 0L371.2 442.7z" fill="#00496C" opacity="1" data-original="#000000" class=""></path><path d="M64 396.8h179.2c7.075 0 12.8-5.725 12.8-12.8s-5.725-12.8-12.8-12.8H64c-21.175 0-38.4-17.225-38.4-38.4V192h435.2v89.6c0 7.075 5.725 12.8 12.8 12.8s12.8-5.725 12.8-12.8V102.4c0-35.287-28.713-64-64-64H64c-35.287 0-64 28.713-64 64v230.4c0 35.287 28.713 64 64 64zM64 64h358.4c21.175 0 38.4 17.225 38.4 38.4v64H25.6v-64C25.6 81.225 42.825 64 64 64z" fill="#00496C" opacity="1" data-original="#000000" class=""></path><path d="M115.2 268.8c-7.075 0-12.8 5.725-12.8 12.8s5.725 12.8 12.8 12.8h51.2c7.075 0 12.8-5.725 12.8-12.8s-5.725-12.8-12.8-12.8z" fill="#00496C" opacity="1" data-original="#000000" class=""></path></g></svg>